<svg width="20" height="20" viewBox="0 0 20 20" fill="none" xmlns="http://www.w3.org/2000/svg">
<path d="M6.66665 18.3337C7.12688 18.3337 7.49998 17.9606 7.49998 17.5003C7.49998 17.0401 7.12688 16.667 6.66665 16.667C6.20641 16.667 5.83331 17.0401 5.83331 17.5003C5.83331 17.9606 6.20641 18.3337 6.66665 18.3337Z" stroke="#2563EB" stroke-width="1.66667" stroke-linecap="round" stroke-linejoin="round"/>
<path d="M15.8333 18.3337C16.2936 18.3337 16.6667 17.9606 16.6667 17.5003C16.6667 17.0401 16.2936 16.667 15.8333 16.667C15.3731 16.667 15 17.0401 15 17.5003C15 17.9606 15.3731 18.3337 15.8333 18.3337Z" stroke="#2563EB" stroke-width="1.66667" stroke-linecap="round" stroke-linejoin="round"/>
<path d="M1.70831 1.70801H3.37498L5.59165 12.058C5.67296 12.4371 5.88387 12.7759 6.18807 13.0162C6.49227 13.2565 6.87073 13.3833 7.25831 13.3747H15.4083C15.7876 13.3741 16.1554 13.2441 16.4508 13.0062C16.7463 12.7683 16.9518 12.4368 17.0333 12.0663L18.4083 5.87467H4.26665" stroke="#2563EB" stroke-width="1.66667" stroke-linecap="round" stroke-linejoin="round"/>
</svg>
